<svg width="55" height="54" viewBox="0 0 55 54" fill="none" xmlns="http://www.w3.org/2000/svg">
<path d="M12.1688 11.25H5.29376M12.7188 11.25L17.6688 28.89C18.0819 30.2811 18.94 31.5047 20.1162 32.3799C21.2924 33.2551 22.7243 33.7355 24.2 33.75H44.2292V11.25H12.7188ZM28.2104 41.625C28.2104 43.489 26.6714 45 24.7729 45C22.8744 45 21.3354 43.489 21.3354 41.625C21.3354 39.761 22.8744 38.25 24.7729 38.25C26.6714 38.25 28.2104 39.761 28.2104 41.625ZM44.2521 41.625C44.2521 43.489 42.7131 45 40.8146 45C38.9161 45 37.3771 43.489 37.3771 41.625C37.3771 39.761 38.9161 38.25 40.8146 38.25C42.7131 38.25 44.2521 39.761 44.2521 41.625Z" stroke="black" stroke-width="3" stroke-linecap="round" stroke-linejoin="round"/>
</svg>
