<svg width="55" height="55" viewBox="0 0 55 55" fill="none" xmlns="http://www.w3.org/2000/svg">
<path d="M26.2024 26.8344C31.1882 26.8344 35.23 22.7926 35.23 17.8068C35.23 12.8211 31.1882 8.7793 26.2024 8.7793C21.2167 8.7793 17.1749 12.8211 17.1749 17.8068C17.1749 22.7926 21.2167 26.8344 26.2024 26.8344Z" stroke="black" stroke-width="3" stroke-linecap="round" stroke-linejoin="round"/>
<path d="M36.4713 45.3183C37.6563 45.2929 38.8139 44.9569 39.8283 44.3439C40.8427 43.7309 41.6785 42.8623 42.2519 41.8251C42.8254 40.7878 43.1165 39.6181 43.0962 38.4331C43.0759 37.248 42.7448 36.089 42.1361 35.072C40.5296 32.5363 38.3083 30.4479 35.6785 29.0009C33.0486 27.5538 30.0957 26.795 27.094 26.795C24.0923 26.795 21.1393 27.5538 18.5094 29.0009C15.8796 30.4479 13.6582 32.5363 12.0518 35.072C11.4431 36.089 11.112 37.248 11.0917 38.4331C11.0714 39.6181 11.3625 40.7878 11.936 41.8251C12.5094 42.8623 13.3452 43.7309 14.3596 44.3439C15.374 44.9569 16.5316 45.2929 17.7165 45.3183H36.4713Z" stroke="black" stroke-width="3" stroke-linecap="round" stroke-linejoin="round"/>
</svg>
