<svg width="106" height="75" viewBox="0 0 106 75" fill="none" xmlns="http://www.w3.org/2000/svg">
<path d="M35 22L0 35.5L8 48L35 32L23.5 60L41 74.5L70 42L64.5 38.5L41 55L45 28L35 22Z" fill="#F9CC29"/>
<path d="M70.5 10L51 17.7143L55.4571 24.8571L70.5 15.7143L64.0929 31.7143L73.8429 40L90 21.4286L86.9357 19.4286L73.8429 28.8571L76.0714 13.4286L70.5 10Z" fill="#F9CC29"/>
<path d="M93 0L80 5.14286L82.9714 9.90476L93 3.80952L88.7286 14.4762L95.2286 20L106 7.61905L103.957 6.28571L95.2286 12.5714L96.7143 2.28571L93 0Z" fill="#F9CC29"/>
</svg>
